<?xml version="1.0" encoding="utf-8" ?>
<svg baseProfile="tiny" height="600" version="1.2" width="800" xmlns="http://www.w3.org/2000/svg" xmlns:ev="http://www.w3.org/2001/xml-events" xmlns:xlink="http://www.w3.org/1999/xlink"><defs /><path d="M784,297 L782,299 L784,301 L786,299" fill="none" stroke="black" /><path d="M691,287 L691,288 L692,289 L692,290 L693,291 L693,292 L694,293 L694,294 L695,295 L695,297 L696,298 L696,301 L695,302 L695,303 L692,306 L692,307 L693,308 L694,307 L695,307 L697,305 L697,304 L699,302 L699,300 L700,299 L700,298 L701,297 L701,295 L702,294 L702,293 L703,292 L703,291 L704,290 L704,287 L702,287 L702,288 L701,289 L701,291 L698,294 L695,291 L695,289 L694,288 L694,287" fill="none" stroke="black" /><path d="M520,287 L520,290 L521,291 L521,292 L522,293 L522,294 L523,295 L523,297 L524,298 L524,299 L526,301 L528,299 L528,298 L529,297 L529,295 L530,294 L530,293 L531,292 L531,291 L532,290 L532,287 L530,287 L530,288 L529,289 L529,291 L526,294 L523,291 L523,289 L522,288 L522,287" fill="none" stroke="black" /><path d="M401,287 L401,298 L404,301 L409,301 L410,300 L413,300 L414,299 L414,287 L412,287 L412,294 L411,295 L411,296 L409,298 L408,298 L407,299 L406,299 L403,296 L403,287" fill="none" stroke="black" /><path d="M393,287 L393,303 L390,306 L390,308 L392,308 L395,305 L395,287" fill="none" stroke="black" /><path d="M160,287 L160,299 L162,299 L162,287" fill="none" stroke="black" /><path d="M141,287 L141,298 L144,301 L149,301 L150,300 L153,300 L154,299 L154,287 L152,287 L152,294 L151,295 L151,296 L149,298 L148,298 L147,299 L146,299 L143,296 L143,287" fill="none" stroke="black" /><path d="M358,286 L358,288 L360,290 L360,291 L361,292 L361,294 L360,295 L360,296 L358,298 L358,300 L359,300 L362,297 L365,297 L368,300 L369,300 L369,298 L367,296 L367,295 L366,294 L366,292 L367,291 L367,290 L369,288 L369,286 L368,286 L365,289 L362,289 L359,286" fill="none" stroke="black" /><path d="M767,285 L766,286 L765,286 L763,288 L763,289 L762,290 L762,296 L763,297 L763,298 L765,300 L766,300 L767,301 L771,301 L773,303 L770,306 L767,306 L767,308 L772,308 L773,307 L774,307 L775,306 L775,305 L776,304 L776,287 L775,286 L774,286 L773,285" fill="none" stroke="black" /><path d="M748,285 L747,286 L746,286 L744,288 L744,289 L743,290 L743,296 L744,297 L744,298 L746,300 L747,300 L748,301 L753,301 L754,300 L755,300 L757,298 L757,297 L758,296 L758,290 L757,289 L757,288 L755,286 L754,286 L753,285" fill="none" stroke="black" /><path d="M677,285 L677,287 L680,287 L682,289 L682,291 L678,295 L678,296 L675,299 L676,300 L676,301 L686,301 L686,299 L683,299 L681,297 L681,295 L685,291 L685,290 L688,287 L687,286 L687,285" fill="none" stroke="black" /><path d="M661,285 L660,286 L659,286 L657,288 L657,289 L656,290 L656,296 L657,297 L657,298 L659,300 L660,300 L661,301 L667,301 L668,300 L669,300 L670,299 L670,287 L669,286 L668,286 L667,285" fill="none" stroke="black" /><path d="M619,285 L618,286 L617,286 L615,288 L615,289 L614,290 L614,296 L615,297 L615,298 L617,300 L618,300 L619,301 L624,301 L625,300 L626,300 L627,299 L627,297 L625,297 L624,298 L623,298 L622,299 L621,299 L620,298 L619,298 L618,297 L618,295 L620,293 L626,293 L628,291 L628,289 L627,288 L627,287 L626,286 L625,286 L624,285" fill="none" stroke="black" /><path d="M560,285 L559,286 L556,286 L555,287 L555,299 L557,299 L557,293 L558,292 L558,291 L559,290 L559,289 L560,288 L561,288 L562,287 L563,287 L563,285" fill="none" stroke="black" /><path d="M541,285 L540,286 L539,286 L537,288 L537,289 L536,290 L536,296 L537,297 L537,298 L539,300 L540,300 L541,301 L546,301 L547,300 L548,300 L549,299 L549,297 L547,297 L546,298 L545,298 L544,299 L543,299 L542,298 L541,298 L540,297 L540,295 L542,293 L548,293 L550,291 L550,289 L549,288 L549,287 L548,286 L547,286 L546,285" fill="none" stroke="black" /><path d="M506,285 L505,286 L504,286 L502,288 L502,289 L501,290 L501,296 L502,297 L502,298 L504,300 L505,300 L506,301 L511,301 L512,300 L513,300 L515,298 L515,297 L516,296 L516,290 L515,289 L515,288 L513,286 L512,286 L511,285" fill="none" stroke="black" /><path d="M471,285 L468,288 L468,290 L471,293 L473,293 L474,294 L475,294 L477,296 L477,297 L475,299 L474,299 L473,298 L472,298 L471,297 L469,297 L469,299 L471,301 L478,301 L481,298 L481,295 L478,292 L478,291 L480,289 L480,287 L478,285" fill="none" stroke="black" /><path d="M453,285 L452,286 L451,286 L450,287 L450,306 L452,306 L452,303 L454,301 L459,301 L460,300 L461,300 L463,298 L463,297 L464,296 L464,290 L463,289 L463,288 L461,286 L460,286 L459,285" fill="none" stroke="black" /><path d="M425,285 L424,286 L421,286 L420,287 L420,299 L422,299 L422,292 L423,291 L423,290 L425,288 L426,288 L427,287 L428,288 L429,288 L430,289 L430,290 L431,291 L431,299 L433,299 L433,292 L434,291 L434,290 L436,288 L437,288 L438,287 L439,287 L442,290 L442,299 L444,299 L444,288 L441,285 L436,285 L435,286 L431,286 L430,285" fill="none" stroke="black" /><path d="M343,285 L342,286 L341,286 L339,288 L339,289 L338,290 L338,296 L339,297 L339,298 L341,300 L342,300 L343,301 L348,301 L349,300 L350,300 L352,298 L352,297 L353,296 L353,290 L352,289 L352,288 L350,286 L349,286 L348,285" fill="none" stroke="black" /><path d="M297,285 L296,286 L293,286 L292,287 L292,299 L294,299 L294,292 L295,291 L295,290 L297,288 L298,288 L299,287 L300,287 L303,290 L303,299 L305,299 L305,288 L302,285" fill="none" stroke="black" /><path d="M278,285 L276,287 L276,289 L275,290 L273,290 L272,289 L272,287 L271,286 L270,286 L269,287 L269,288 L270,289 L270,292 L271,293 L271,295 L272,296 L272,299 L274,301 L276,299 L276,297 L277,296 L279,296 L280,297 L280,299 L282,301 L284,299 L284,296 L285,295 L285,293 L286,292 L286,289 L287,288 L287,287 L286,286 L285,286 L284,287 L284,289 L283,290 L281,290 L280,289 L280,287" fill="none" stroke="black" /><path d="M255,285 L254,286 L253,286 L251,288 L251,289 L250,290 L250,296 L251,297 L251,298 L253,300 L254,300 L255,301 L260,301 L261,300 L262,300 L264,298 L264,297 L265,296 L265,290 L264,289 L264,288 L262,286 L261,286 L260,285" fill="none" stroke="black" /><path d="M243,285 L242,286 L239,286 L238,287 L238,299 L240,299 L240,293 L241,292 L241,291 L242,290 L242,289 L243,288 L244,288 L245,287 L246,287 L246,285" fill="none" stroke="black" /><path d="M172,285 L171,286 L170,286 L168,288 L168,289 L167,290 L167,296 L168,297 L168,298 L170,300 L171,300 L172,301 L177,301 L178,300 L179,300 L180,299 L180,297 L178,297 L177,298 L176,298 L175,299 L174,299 L173,298 L172,298 L170,296 L170,295 L169,294 L169,292 L170,291 L170,290 L172,288 L173,288 L174,287 L175,287 L176,288 L177,288 L178,289 L180,289 L180,287 L179,286 L178,286 L177,285" fill="none" stroke="black" /><path d="M126,285 L125,286 L124,286 L122,288 L122,289 L121,290 L121,296 L122,297 L122,298 L124,300 L125,300 L126,301 L131,301 L133,303 L133,306 L135,306 L135,287 L134,286 L133,286 L132,285" fill="none" stroke="black" /><path d="M92,285 L91,286 L90,286 L88,288 L88,289 L87,290 L87,296 L88,297 L88,298 L90,300 L91,300 L92,301 L97,301 L98,300 L99,300 L100,299 L100,297 L98,297 L97,298 L96,298 L95,299 L94,299 L93,298 L92,298 L91,297 L91,295 L93,293 L99,293 L101,291 L101,289 L100,288 L100,287 L99,286 L98,286 L97,285" fill="none" stroke="black" /><path d="M736,280 L736,283 L734,285 L729,285 L728,286 L727,286 L725,288 L725,289 L724,290 L724,296 L725,297 L725,298 L727,300 L728,300 L729,301 L735,301 L736,300 L737,300 L738,299 L738,280" fill="none" stroke="black" /><path d="M649,280 L649,299 L651,299 L651,280" fill="none" stroke="black" /><path d="M596,280 L596,299 L598,299 L598,292 L599,291 L599,290 L601,288 L602,288 L603,287 L604,287 L607,290 L607,299 L609,299 L609,288 L606,285 L600,285 L598,283 L598,280" fill="none" stroke="black" /><path d="M585,280 L585,283 L584,284 L584,288 L585,289 L585,298 L588,301 L590,301 L590,299 L587,296 L587,290 L588,289 L588,288 L589,287 L589,285 L588,284 L588,283 L587,282 L587,280" fill="none" stroke="black" /><path d="M219,280 L219,299 L220,300 L221,300 L222,301 L228,301 L229,300 L230,300 L232,298 L232,297 L233,296 L233,290 L232,289 L232,288 L230,286 L229,286 L228,285 L223,285 L221,283 L221,280" fill="none" stroke="black" /><path d="M186,280 L186,299 L188,299 L188,298 L191,295 L192,295 L195,298 L195,299 L196,300 L198,300 L198,298 L194,294 L194,291 L197,288 L197,286 L195,286 L191,290 L190,290 L188,288 L188,280" fill="none" stroke="black" /><path d="M69,280 L69,299 L71,299 L71,292 L72,291 L72,290 L74,288 L75,288 L76,287 L77,287 L80,290 L80,299 L82,299 L82,288 L79,285 L73,285 L71,283 L71,280" fill="none" stroke="black" /><path d="M331,278 L328,281 L328,283 L327,284 L327,288 L328,289 L328,299 L330,299 L330,290 L331,289 L331,288 L332,287 L332,284 L331,283 L331,282 L333,280 L333,278" fill="none" stroke="black" /><path d="M52,278 L52,280 L54,280 L57,283 L57,299 L59,299 L59,283 L62,280 L64,280 L64,278" fill="none" stroke="black" /><path d="M394,277 L392,279 L394,281 L396,279" fill="none" stroke="black" /><path d="M161,277 L159,279 L161,281 L163,279" fill="none" stroke="black" /><path d="M504,197 L502,199 L504,201 L506,199" fill="none" stroke="black" /><path d="M167,187 L167,199 L169,199 L169,187" fill="none" stroke="black" /><path d="M411,185 L410,186 L409,186 L407,188 L407,189 L406,190 L406,196 L407,197 L407,198 L409,200 L410,200 L411,201 L417,201 L418,200 L419,200 L420,199 L420,187 L419,186 L418,186 L417,185" fill="none" stroke="black" /><path d="M377,185 L376,186 L373,186 L372,187 L372,199 L374,199 L374,192 L375,191 L375,190 L377,188 L378,188 L379,187 L380,187 L383,190 L383,199 L385,199 L385,188 L382,185" fill="none" stroke="black" /><path d="M357,185 L356,186 L355,186 L353,188 L353,189 L352,190 L352,196 L353,197 L353,198 L355,200 L356,200 L357,201 L362,201 L363,200 L364,200 L366,198 L366,197 L367,196 L367,190 L366,189 L366,188 L364,186 L363,186 L362,185" fill="none" stroke="black" /><path d="M322,185 L319,188 L319,190 L322,193 L324,193 L325,194 L326,194 L328,196 L328,197 L326,199 L325,199 L324,198 L323,198 L322,197 L320,197 L320,199 L322,201 L329,201 L332,198 L332,195 L329,192 L329,191 L331,189 L331,187 L329,185" fill="none" stroke="black" /><path d="M306,185 L305,186 L304,186 L302,188 L302,189 L301,190 L301,196 L302,197 L302,198 L304,200 L305,200 L306,201 L311,201 L312,200 L313,200 L314,199 L314,197 L312,197 L311,198 L310,198 L309,199 L308,199 L307,198 L306,198 L305,197 L305,195 L307,193 L313,193 L315,191 L315,189 L314,188 L314,187 L313,186 L312,186 L311,185" fill="none" stroke="black" /><path d="M275,185 L274,186 L273,186 L271,188 L271,189 L270,190 L270,196 L271,197 L271,198 L273,200 L274,200 L275,201 L280,201 L281,200 L282,200 L284,198 L284,197 L285,196 L285,190 L284,189 L284,188 L282,186 L281,186 L280,185" fill="none" stroke="black" /><path d="M257,185 L256,186 L253,186 L252,187 L252,199 L254,199 L254,192 L255,191 L255,190 L257,188 L258,188 L259,187 L260,187 L263,190 L263,199 L265,199 L265,188 L262,185" fill="none" stroke="black" /><path d="M222,185 L221,186 L218,186 L217,187 L217,199 L219,199 L219,192 L220,191 L220,190 L222,188 L223,188 L224,187 L225,187 L228,190 L228,199 L230,199 L230,188 L227,185" fill="none" stroke="black" /><path d="M203,185 L202,186 L201,186 L199,188 L199,189 L198,190 L198,196 L199,197 L199,198 L201,200 L202,200 L203,201 L208,201 L209,200 L210,200 L211,199 L211,197 L209,197 L208,198 L207,198 L206,199 L205,199 L204,198 L203,198 L202,197 L202,195 L204,193 L210,193 L212,191 L212,189 L211,188 L211,187 L210,186 L209,186 L208,185" fill="none" stroke="black" /><path d="M159,185 L158,186 L155,186 L154,187 L154,199 L156,199 L156,193 L157,192 L157,191 L158,190 L158,189 L159,188 L160,188 L161,187 L162,187 L162,185" fill="none" stroke="black" /><path d="M140,185 L138,187 L138,189 L137,190 L135,190 L134,189 L134,187 L133,186 L132,186 L131,187 L131,188 L132,189 L132,192 L133,193 L133,195 L134,196 L134,199 L136,201 L138,199 L138,197 L139,196 L141,196 L142,197 L142,199 L144,201 L146,199 L146,196 L147,195 L147,193 L148,192 L148,189 L149,188 L149,187 L148,186 L147,186 L146,187 L146,189 L145,190 L143,190 L142,189 L142,187" fill="none" stroke="black" /><path d="M99,185 L98,186 L95,186 L94,187 L94,199 L96,199 L96,192 L97,191 L97,190 L99,188 L100,188 L101,187 L102,187 L105,190 L105,199 L107,199 L107,188 L104,185" fill="none" stroke="black" /><path d="M79,185 L78,186 L77,186 L75,188 L75,189 L74,190 L74,196 L75,197 L75,198 L77,200 L78,200 L79,201 L85,201 L86,200 L87,200 L88,199 L88,187 L87,186 L86,186 L85,185" fill="none" stroke="black" /><path d="M291,180 L291,183 L290,184 L290,188 L291,189 L291,198 L294,201 L296,201 L296,199 L293,196 L293,190 L294,189 L294,188 L295,187 L295,185 L294,184 L294,183 L293,182 L293,180" fill="none" stroke="black" /><path d="M188,180 L188,183 L187,184 L187,188 L188,189 L188,198 L191,201 L193,201 L193,199 L190,196 L190,190 L191,189 L191,188 L192,187 L192,185 L191,184 L191,183 L190,182 L190,180" fill="none" stroke="black" /><path d="M176,180 L176,183 L175,184 L175,188 L176,189 L176,198 L179,201 L181,201 L181,199 L178,196 L178,190 L179,189 L179,188 L180,187 L180,185 L179,184 L179,183 L178,182 L178,180" fill="none" stroke="black" /><path d="M124,180 L124,183 L122,185 L117,185 L116,186 L115,186 L113,188 L113,189 L112,190 L112,196 L113,197 L113,198 L115,200 L116,200 L117,201 L123,201 L124,200 L125,200 L126,199 L126,180" fill="none" stroke="black" /><path d="M53,180 L53,199 L55,199 L55,193 L58,190 L64,190 L67,193 L67,199 L69,199 L69,180 L67,180 L67,185 L64,188 L58,188 L55,185 L55,180" fill="none" stroke="black" /><path d="M485,178 L484,179 L484,199 L486,199 L486,193 L489,190 L492,190 L492,188 L489,188 L486,185 L486,183 L489,180 L497,180 L497,178" fill="none" stroke="black" /><path d="M464,178 L463,179 L463,200 L464,201 L473,201 L474,200 L475,200 L477,198 L477,197 L478,196 L478,195 L479,194 L479,185 L478,184 L478,183 L477,182 L477,181 L475,179 L474,179 L473,178" fill="none" stroke="black" /><path d="M443,178 L442,179 L442,199 L444,199 L444,194 L447,191 L454,191 L455,190 L456,190 L457,189 L457,188 L458,187 L458,182 L457,181 L457,180 L456,179 L455,179 L454,178" fill="none" stroke="black" /><path d="M168,177 L166,179 L168,181 L170,179" fill="none" stroke="black" /><path d="M350,97 L348,99 L350,101 L352,99" fill="none" stroke="black" /><path d="M129,87 L129,99 L131,99 L131,87" fill="none" stroke="black" /><path d="M88,87 L88,99 L90,99 L90,87" fill="none" stroke="black" /><path d="M334,85 L333,86 L332,86 L330,88 L330,89 L329,90 L329,96 L330,97 L330,98 L332,100 L333,100 L334,101 L339,101 L340,100 L341,100 L342,99 L342,97 L340,97 L339,98 L338,98 L337,99 L336,99 L335,98 L334,98 L333,97 L333,95 L335,93 L341,93 L343,91 L343,89 L342,88 L342,87 L341,86 L340,86 L339,85" fill="none" stroke="black" /><path d="M303,85 L302,86 L301,86 L299,88 L299,89 L298,90 L298,96 L299,97 L299,98 L301,100 L302,100 L303,101 L308,101 L309,100 L310,100 L312,98 L312,97 L313,96 L313,90 L312,89 L312,88 L310,86 L309,86 L308,85" fill="none" stroke="black" /><path d="M285,85 L284,86 L281,86 L280,87 L280,99 L282,99 L282,92 L283,91 L283,90 L285,88 L286,88 L287,87 L288,87 L291,90 L291,99 L293,99 L293,88 L290,85" fill="none" stroke="black" /><path d="M237,85 L234,88 L234,90 L237,93 L239,93 L240,94 L241,94 L243,96 L243,97 L241,99 L240,99 L239,98 L238,98 L237,97 L235,97 L235,99 L237,101 L244,101 L247,98 L247,95 L244,92 L244,91 L246,89 L246,87 L244,85" fill="none" stroke="black" /><path d="M221,85 L220,86 L219,86 L217,88 L217,89 L216,90 L216,96 L217,97 L217,98 L219,100 L220,100 L221,101 L226,101 L227,100 L228,100 L229,99 L229,97 L227,97 L226,98 L225,98 L224,99 L223,99 L222,98 L221,98 L220,97 L220,95 L222,93 L228,93 L230,91 L230,89 L229,88 L229,87 L228,86 L227,86 L226,85" fill="none" stroke="black" /><path d="M174,85 L173,86 L172,86 L170,88 L170,89 L169,90 L169,96 L170,97 L170,98 L172,100 L173,100 L174,101 L180,101 L181,100 L182,100 L183,99 L183,87 L182,86 L181,86 L180,85" fill="none" stroke="black" /><path d="M139,85 L136,88 L136,90 L139,93 L141,93 L142,94 L143,94 L145,96 L145,97 L143,99 L142,99 L141,98 L140,98 L139,97 L137,97 L137,99 L139,101 L146,101 L149,98 L149,95 L146,92 L146,91 L148,89 L148,87 L146,85" fill="none" stroke="black" /><path d="M98,85 L95,88 L95,90 L98,93 L100,93 L101,94 L102,94 L104,96 L104,97 L102,99 L101,99 L100,98 L99,98 L98,97 L96,97 L96,99 L98,101 L105,101 L108,98 L108,95 L105,92 L105,91 L107,89 L107,87 L105,85" fill="none" stroke="black" /><path d="M319,80 L319,83 L318,84 L318,88 L319,89 L319,98 L322,101 L324,101 L324,99 L321,96 L321,90 L322,89 L322,88 L323,87 L323,85 L322,84 L322,83 L321,82 L321,80" fill="none" stroke="black" /><path d="M253,80 L253,83 L252,84 L252,88 L253,89 L253,98 L256,101 L258,101 L258,99 L255,96 L255,90 L256,89 L256,88 L257,87 L257,85 L256,84 L256,83 L255,82 L255,80" fill="none" stroke="black" /><path d="M206,80 L206,83 L205,84 L205,88 L206,89 L206,98 L209,101 L211,101 L211,99 L208,96 L208,90 L209,89 L209,88 L210,87 L210,85 L209,84 L209,83 L208,82 L208,80" fill="none" stroke="black" /><path d="M69,80 L69,99 L71,99 L71,92 L72,91 L72,90 L74,88 L75,88 L76,87 L77,87 L80,90 L80,99 L82,99 L82,88 L79,85 L73,85 L71,83 L71,80" fill="none" stroke="black" /><path d="M52,78 L52,80 L54,80 L57,83 L57,99 L59,99 L59,83 L62,80 L64,80 L64,78" fill="none" stroke="black" /><path d="M130,77 L128,79 L130,81 L132,79" fill="none" stroke="black" /><path d="M89,77 L87,79 L89,81 L91,79" fill="none" stroke="black" /></svg>